<?xml version="1.0" standalone="no"?><!DOCTYPE svg PUBLIC "-//W3C//DTD SVG 1.1//EN" "http://www.w3.org/Graphics/SVG/1.1/DTD/svg11.dtd"><svg t="1757254230143" class="icon" viewBox="0 0 1024 1024" version="1.1" xmlns="http://www.w3.org/2000/svg" p-id="2515" xmlns:xlink="http://www.w3.org/1999/xlink" width="200" height="200"><path d="M504.1625 968.0375c-9.558333-3.570833-36.816667-3.645833-49.825-5.583333-10.733333-1.6-35.375-5.3625-44.233333-9.291667-5.854167-0.920833-28.125-6.258333-31.554167-9.254167-4.9125-4.279167-7.679167-22.608333-9.55-30.258333-3.9375-16.0875-22.325-39.533333-35.258333-45.270833 2.379167 10.008333 7.358333 12.3625 12.775 19.758333 12.9625 17.7 22.483333 29.770833 28.054166 54.395833-9.729167-1.604167-23.379167-7.895833-32.845833-11.733333-12.991667-5.266667-7.9125-8.429167-15.5375-16.75-5.329167-5.8125-0.225-2.358333-7.904167-5.141667 1.316667 13.4375-1.4625 1.091667 7.466667 14.345834-23.675-8.1625-58.166667-32.283333-76.345833-44.6375l-39.4375-32.466667c-10.895833-10.1125-8.195833-6.741667-9.675-26.1375-3.366667-44.079167-12.9-135.775 17.825-156.654167 17.8375-12.116667 133.645833-87.1 155.020833-97.483333l22.491667-8.65 38.295833-20.691667c4.395833-7.970833 9.1-19.133333 12.241667-29.979166 2.866667-9.908333 4.545833-25.545833 7.545833-33.7375 10.1375 4.0375 16.916667 11.291667 28.275 14.75l-9.8375-8.5c-27.775-20.104167-49.879167-53.179167-63.108333-86.391667-2.858333-7.166667-5.908333-17.9875-8.954167-23.825-3.666667-7.033333-7.745833-12.804167-11.479167-20.904167-2.45-5.3125-6.358333-19.266667-9.0875-22.591666-19.7-50.441667-39.033333-110.941667-3.470833-158.704167 33.391667-44.85 78.025-42.8125 96.891667-52.6 80.641667-41.820833 206.570833-10.4375 220.175 94.091667 4.5875 35.25-3.991667 55.541667-11.0625 86.1125-0.820833 18.016667-18.570833 58.183333-25.4625 74.016666l-14.445834 35.3c-5.241667 11.995833-12.133333 21.654167-16.45 31.8125 4.5875 4.6375 5.8375 4.333333 9.816667 7.404167 3.345833 2.583333 5.029167 4.45 8.3 7.116667 3.154167 2.579167 5.804167 4.029167 8.879167 6.6375 3.616667 3.0625 5.645833 4.733333 8.35 7.1125a353.533333 353.533333 0 0 0 16.920833 14.020833l216.445833 188.045833c6.629167 2.604167 43.929167 36.070833 48.054167 41.129167-8.25 26.895833-71.75 113.55-92.25 125.2625-1.9875 7.1125-7.45 9.9625-12.158333 14.058333-3.445833 3.241667-10.7625 10.329167-14.791667 12.0625-19.325 19.454167-88.491667 62.566667-113.6125 70.333334 1.616667-5.216667 5.325-13.508333 7.9-18.254167 2.229167-4.1 2.791667-3.891667 4.820833-7.266667 2.558333-4.2625 1.379167-4.275 4.35-7.720833 3.0375-3.520833 2.995833-1.891667 6.55-5.358333l10.8-13.166667c6.054167-6.7375 3.516667 0.929167 5.4125-10.133333-10.170833 4.670833-16.0875 13.004167-23.154166 19.775-25.954167 24.895833-6.0125 39.175-30.575 48.479166-5.070833 1.920833-10.05 3.8375-15.0125 5.625-16.2875 5.858333-12.129167 2.945833-14.141667 1.825-0.604167 5.079167 3.316667 1.333333-4.9875 4.8l-20.291667 5.408334c-25.825 6.758333-88.8875 14.720833-90.595833 15.4625 104.770833 0 222.879167 14.525 305.983333-40.5375 22.629167-15 46.429167-31.6875 64.070834-52.7625 62.779167-75.004167 71.65-130.8125 72.658333-208.241667v-64.470833-294.829167c-3.65-44.841667-13.354167-87.370833-36.6375-130.75-38.833333-72.354167-120.9625-129.675-206.079167-140.979167-7.966667-1.058333-26.295833-1.758333-50.641666-2.208333H320.216667c-9.275 0.5-18.258333 1.329167-26.766667 2.666667-64.3125 10.0875-117.270833 40.6-154.270833 77.666666-37.766667 37.8375-68.891667 87.329167-79.85 150.391667-2.025 11.645833-3.220833 38.629167-3.9 72.820833v364.666667c0.35 6.629167 0.858333 13.083333 1.566666 19.279167 4 34.779167 13.379167 62.441667 26.491667 88.629166 14.629167 29.2125 25.675 45.375 47.1125 69.716667 43.970833 49.941667 128.979167 89.354167 197.954167 88.9625l175.608333-0.025z" fill="#C7DE98" p-id="2516"></path><path d="M526.266667 602.770833l-1.425-0.045833c-10.758333 4-28.3875 16.125-40.229167 23.045833-9.195833 5.375-31.983333 20.325-40.929167 23.133334l-88.133333-69.725 40.075-21.958334-22.491667 8.65c-21.375 10.383333-137.179167 85.366667-155.020833 97.483334-30.725 20.879167-21.191667 112.575-17.825 156.654166 1.479167 19.395833-1.220833 16.029167 9.675 26.1375l39.4375 32.466667c8.6625-20.191667 8.654167-11.329167 21.7625-20.558333-10.9-25.075 14.466667-34.725 21.091667-39.516667-7.308333-23.191667 4.9875-38.329167 28.3875-40.1625 3.991667 7.9 11.5 15.858333 18.241666 22.791667 27.020833-1.141667 43.379167-9.525 66.045834-13.245834 26.1125-13.541667 31.733333-23.35 71.170833-34.970833 35.658333-10.5125 57.045833-8.975 94.704167-8.166667l130.5625-150.429166c5.970833 1.741667 64.508333 33.7875 68.016666 39.0875l31.095834 16.7625c33.058333 18.6125 35.958333 13.9875 43.475 57.1375 3.375 19.358333 3.179167 51.775 0.4625 70.891666-1.5375 10.825-0.291667 24.695833-1.658334 34.4l-2.458333 24.895834c-0.970833 8.429167-0.075 1.704167-2.266667 8.629166 4.708333-4.095833 10.170833-6.945833 12.1625-14.058333 4.783333-16.345833 6.1625-67.554167 6.120834-87.454167-0.079167-34.745833-1.9875-49.925-15.0375-77.491666-11.420833-9.3-35.370833-21.1625-51.433334-29.945834l-131.25-73.145833c-7.583333-4.141667-17.775-10.7875-26.041666-13.645833 8.495833 7.854167 34.033333 20.775 39.045833 27.545833-5.1 7.1125-12.604167 11.3875-20.029167 18.8875l-59.9 52.683333c-10.4-6.808333-22.625-15.895833-32.766666-23.579166-9.595833-7.266667-21.854167-16.7125-32.6375-23.183334z" fill="#D8E4C2" p-id="2517"></path><path d="M379.504167 325.354167c2.729167 3.329167 6.6375 17.279167 9.0875 22.591666 3.733333 8.095833 7.8125 13.870833 11.479166 20.904167 3.045833 5.833333 6.1 16.658333 8.954167 23.825 13.229167 33.2125 35.333333 66.2875 63.108333 86.391667l9.8375 8.5c13.258333 7.241667 33.604167 15.516667 52.645834 13.691666 26.833333-7.3875 33.925-11.379167 52.8-25.25 7.954167-5.845833 13.545833-13.15 20.233333-19.254166 7.4125-6.766667 10.825-14.716667 18.020833-21.375 4.316667-10.158333 11.208333-19.816667 16.45-31.8125l14.445834-35.3c6.891667-15.833333 24.641667-56 25.4625-74.016667-4.141667 8.816667-8.504167 19.8125-12.620834 28.833333-1.058333-12.745833 2.691667-10.479167-7.2625-13.366666-7.720833-2.241667-7.891667-2.133333-10.529166-10.295834-6.416667-19.841667-23.866667-29.883333-41.841667-38.708333-23.3875-11.479167-71.079167 13.716667-143.7625-57.383333-5.0125 2.4375-3.191667 2.295833-7.620833 6.166666l-23.570834 16c-11.4375 6.9125-22.645833 13.154167-33.125 20.1625-7.366667 4.925-10.375 5.404167-13.133333 14.116667-3.695833 11.666667-10.429167 31.7-10.775 43.225-0.229167 7.833333 2.445833 17.1375 1.716667 22.354167z" fill="#FEBD95" p-id="2518"></path><path d="M404.933333 787.929167c-7.045833 7.120833-36.770833 28.8-42.270833 42.641666l25.675 32.233334c11.404167-17.970833 38.554167-41.079167 59.925-53.416667 24.383333-14.070833 54.904167-23.575 87.754167-24.566667-8.245833 12.616667-116.604167 137.704167-126.725 149.045834l0.8125 19.295833c8.854167 3.929167 33.5 7.695833 44.233333 9.291667 13.0125 1.9375 40.266667 2.008333 49.825 5.583333h46.55c1.708333-0.741667 64.770833-8.704167 90.595833-15.4625l20.291667-5.408333c8.304167-3.466667 4.3875 0.275 4.9875-4.8-27.383333-6.683333-15.070833 8.8125-58.941667-21.491667-19.966667-13.795833-26.5375-18.5-55.1-27.541667l72.795834-88.695833c19.1625 4.866667 38.804167 23.633333 52.8125 37.1125 7.004167 6.741667 8.0375 10.0875 14.666666 16.066667 6.908333-4.7375 6.920833-9.270833 13.416667-15.5375l14.266667-12.979167c-9.583333-23.666667-61.091667-52.6875-64.9125-58.058333l-5.966667-1.191667c5.808333-1.695833 3.720833 1.4625 8.945833-4.495833l81.154167-97.620834c3.270833-4 25.783333-32.554167 29.6625-34.483333-3.508333-5.295833-62.05-37.345833-68.016667-39.0875l-130.5625 150.429167c-37.658333-0.808333-59.045833-2.345833-94.704166 8.166666-39.441667 11.620833-45.0625 21.429167-71.170834 34.970834z" fill="#373130" p-id="2519"></path><path d="M379.504167 325.354167c0.729167-5.2125-1.945833-14.520833-1.7125-22.354167 0.345833-11.525 7.079167-31.558333 10.775-43.225 2.758333-8.708333 5.766667-9.191667 13.133333-14.116667 10.479167-7.008333 21.6875-13.25 33.125-20.1625l23.570833-16c4.429167-3.875 2.604167-3.733333 7.620834-6.166666 72.6875 71.095833 120.375 45.904167 143.7625 57.383333 17.975 8.825 35.425 18.866667 41.841666 38.708333 2.641667 8.1625 2.8125 8.058333 10.529167 10.295834 9.958333 2.8875 6.204167 0.625 7.2625 13.366666 4.116667-9.020833 8.479167-20.016667 12.620833-28.833333 7.070833-30.570833 15.65-50.8625 11.0625-86.1125-13.604167-104.525-139.533333-135.9125-220.175-94.091667-18.866667 9.7875-63.5 7.75-96.891666 52.6-35.558333 47.7625-16.225 108.266667 3.475 158.708334z" fill="#474443" p-id="2520"></path><path d="M655.5875 771.245833c30.804167 9.066667 59.45 24.666667 96.4375 25.704167l19.5-22.033333c16.75 1.725 40.1125 15.633333 27.1125 42.3875 14.825 3.241667 32.4125 20.975 21.808333 39.041666l2.804167 1.883334c4.029167-1.729167 11.345833-8.816667 14.791667-12.0625 2.191667-6.925 1.295833-0.2 2.266666-8.629167l2.458334-24.895833c1.366667-9.704167 0.120833-23.575 1.658333-34.4 2.7125-19.116667 2.908333-51.529167-0.4625-70.891667-7.516667-43.145833-10.416667-38.525-43.475-57.1375l-31.095833-16.7625c-3.879167 1.929167-26.391667 30.483333-29.6625 34.483333l-81.154167 97.620834c-5.229167 5.958333-3.141667 2.8-8.945833 4.495833l5.958333 1.195833z" fill="#D8E4C2" p-id="2521"></path><path d="M534.620833 501.254167c21.991667 6.3 49.425-19.1625 57.2125-22.679167l15.020834 56.770833 25.7 15.079167c8.266667 2.8625 18.458333 9.504167 26.041666 13.645833l131.25 73.145834c16.058333 8.779167 40.0125 20.641667 51.433334 29.945833l53.108333-1.445833-216.445833-188.045834a353.533333 353.533333 0 0 1-16.920834-14.020833c-2.7-2.379167-4.733333-4.05-8.35-7.1125-3.075-2.604167-5.725-4.058333-8.879166-6.6375-3.270833-2.670833-4.954167-4.5375-8.3-7.116667-3.979167-3.070833-5.233333-2.766667-9.816667-7.404166-7.2 6.658333-10.608333 14.608333-18.020833 21.375-6.6875 6.104167-12.279167 13.408333-20.233334 19.254166-18.879167 13.866667-25.966667 17.858333-52.8 25.245834z" fill="#9ACB54" p-id="2522"></path><path d="M249.4 878.616667c18.179167 12.354167 52.675 36.475 76.345833 44.6375-8.929167-13.258333-6.15-0.9125-7.466666-14.345834 7.679167 2.783333 2.579167-0.666667 7.904166 5.141667 7.625 8.316667 2.545833 11.483333 15.5375 16.75 9.466667 3.841667 23.116667 10.133333 32.845834 11.733333-5.570833-24.625-15.091667-36.695833-28.054167-54.395833-5.416667-7.395833-10.395833-9.75-12.775-19.758333 12.933333 5.7375 31.320833 29.183333 35.258333 45.270833 1.870833 7.65 4.6375 25.975 9.55 30.258333 3.429167 2.995833 25.695833 8.333333 31.554167 9.254167l-0.8125-19.295833-8.1-36.508334c-2.85-16.591667-8.25-21.679167-12.85-34.554166l-25.675-32.233334c5.5-13.841667 35.225-35.520833 42.270833-42.641666-22.666667 3.720833-39.020833 12.1-66.045833 13.245833-6.741667-6.933333-14.254167-14.891667-18.241667-22.791667-23.404167 1.829167-35.695833 16.966667-28.3875 40.1625-6.625 4.791667-31.991667 14.445833-21.091666 39.516667-13.108333 9.225-13.1 0.3625-21.766667 20.554167zM692.820833 857.816667c-2.154167 7.195833-6 10.879167-9.258333 18.45-3.4625 8.045833-4.229167 12.933333-5.983333 21.575-2.808333 13.804167-7.079167 31.258333-10.995834 44.529166 2.008333 1.120833-2.15 4.033333 14.141667-1.825 4.958333-1.7875 9.941667-3.704167 15.0125-5.625 24.5625-9.3 4.620833-23.583333 30.575-48.479166 7.0625-6.770833 12.979167-15.104167 23.154167-19.775-1.895833 11.058333 0.641667 3.391667-5.4125 10.133333l-10.8 13.166667c-3.558333 3.466667-3.5125 1.8375-6.55 5.358333-2.970833 3.441667-1.791667 3.454167-4.35 7.720833-2.029167 3.379167-2.591667 3.166667-4.820834 7.266667-2.570833 4.745833-6.283333 13.0375-7.9 18.254167 25.116667-7.766667 94.2875-50.879167 113.6125-70.3375l-2.804166-1.879167c10.604167-18.066667-6.9875-35.8-21.808334-39.041667 13-26.754167-10.3625-40.6625-27.1125-42.3875l-19.5 22.033334c-36.9875-1.0375-65.633333-16.6375-96.4375-25.704167 3.825 5.370833 55.333333 34.391667 64.9125 58.058333l-14.2625 12.979167c-6.491667 6.258333-6.5 10.791667-13.4125 15.529167z" fill="#FEBD95" p-id="2523"></path><path d="M666.5875 942.366667c3.9125-13.270833 8.1875-30.725 10.995833-44.529167 1.754167-8.641667 2.516667-13.529167 5.983334-21.575 3.254167-7.566667 7.104167-11.254167 9.258333-18.45-6.629167-5.983333-7.6625-9.325-14.666667-16.066667-14.004167-13.479167-33.65-32.245833-52.8125-37.1125l-72.795833 88.695834c28.558333 9.041667 35.133333 13.75 55.1 27.541666 43.866667 30.308333 31.554167 14.808333 58.9375 21.495834z" fill="#D8E4C2" p-id="2524"></path><path d="M395.620833 557.220833l-40.075 21.958334 88.133334 69.725c8.945833-2.808333 31.733333-17.758333 40.929166-23.133334 11.845833-6.920833 29.470833-19.045833 40.229167-23.045833-1.545833-1.995833-0.966667-1.45-2.770833-3.241667a83.191667 83.191667 0 0 0-2.941667-2.516666l-85.2125-60.4375-38.291667 20.691666z" fill="#E67D4D" p-id="2525"></path><path d="M841.279167 667.1625c13.054167 27.5625 14.9625 42.745833 15.0375 77.491667 0.041667 19.9-1.333333 71.108333-6.120834 87.454166 20.495833-11.7125 83.991667-98.3625 92.245834-125.2625-4.125-5.058333-41.425-38.525-48.054167-41.129166l-53.108333 1.445833z" fill="#AAD26D" p-id="2526"></path><path d="M433.916667 536.533333l85.2125 60.4375c0.408333 0.308333 2.620833 2.195833 2.941666 2.516667 1.804167 1.795833 1.225 1.245833 2.770834 3.241667l1.429166 0.045833c0.3375-0.904167 0.966667-2.9 1.6-4.5125 14.25-20.0125 28.9625-36.720833 45.6625-53.625 4.7125-4.770833 9.658333-12.695833 7.054167-22.920833-9.970833-7.0375-25.083333-1.725-39.045833-2.316667-31.925-1.35-79.458333-13.633333-87.841667-46.583333-3 8.191667-4.679167 23.829167-7.545833 33.7375-3.1375 10.845833-7.841667 22.004167-12.2375 29.979166z" fill="#FEBD95" p-id="2527"></path><path d="M527.866667 598.258333c-0.629167 1.6125-1.2625 3.608333-1.604167 4.5125 10.783333 6.470833 23.041667 15.916667 32.641667 23.191667 10.145833 7.683333 22.366667 16.770833 32.766666 23.579167l59.9-52.683334c7.420833-7.5 14.929167-11.775 20.029167-18.8875-5.0125-6.770833-30.55-19.695833-39.045833-27.545833l-25.7-15.079167c-12.233333 8.445833-26.683333 21.133333-38.616667 31.454167-6.05 5.233333-13.591667 10.691667-19.879167 16.220833-6.670833 5.858333-12.304167 11.458333-20.491666 15.2375z" fill="#E67D4D" p-id="2528"></path><path d="M388.3375 862.804167c4.6 12.875 10.004167 17.9625 12.85 34.554166l8.1 36.508334c10.120833-11.345833 118.479167-136.429167 126.725-149.045834-32.85 0.991667-63.370833 10.5-87.754167 24.566667-21.366667 12.3375-48.516667 35.45-59.920833 53.416667z" fill="#D8E4C2" p-id="2529"></path><path d="M527.866667 598.258333c8.1875-3.779167 13.816667-9.379167 20.491666-15.2375 6.291667-5.525 13.829167-10.9875 19.879167-16.220833 11.929167-10.320833 26.383333-23.004167 38.616667-31.454167l-15.020834-56.770833c-7.7875 3.520833-35.220833 28.983333-57.2125 22.679167-19.0375 1.825-39.3875-6.45-52.645833-13.691667-11.358333-3.454167-18.1375-10.708333-28.275-14.75 8.383333 32.95 55.9125 45.229167 87.841667 46.583333 13.966667 0.591667 29.079167-4.725 39.045833 2.316667 2.604167 10.225-2.345833 18.15-7.054167 22.920833-16.7 16.904167-31.416667 33.6125-45.666666 53.625z" fill="#EBAA81" p-id="2530"></path></svg>